# xmcd
#
# Track frame offsets:
#	150
#	14224
#	30272
#	43665
#	56433
#	68448
#	79377
#	94761
#	107961
#	119930
#	135694
#	153186
#	168039
#	179764
#	194281
#	203844
#
# Disc length: 2866
#
# Revision: 1
# Processed by: cddbd v1.5.1PL0 Copyright (c) Steve Scherf et al.
# Submitted via: CDex 1.50
# Normalized: r0:DSETVAR1,TDELIM( - )
#
DISCID=de0b3010
DTITLE=Various Artist - Country Superhits
DYEAR=1900
DGENRE=Country
TTITLE0=Glen Campbel - Rhinestone Cowboy
TTITLE1=Kenny Rogers - Lucille
TTITLE2=Dolly Parton - Here You Come Again
TTITLE3=Jim Reeves - Distant Drums
TTITLE4=Susan Raye - L.A. International Airport
TTITLE5=Roger Miller - King Of The Road
TTITLE6=Billie Jo Spears - Blanket On The Ground
TTITLE7=Waylon Jennings - Good Hearted Woman (live)
TTITLE8=Bobby Bare - 500 Miles Away From Home
TTITLE9=Kenny Rogers - The Gambler
TTITLE10=Alabama - Mountain Music
TTITLE11=Olivia Newton-John - Take Me Home Country Roads
TTITLE12=Stonewall Jackson - I Washed My Hands In Muddy Water
TTITLE13=Frankie Laine - Jezebel
TTITLE14=Dave Dudley - Six Days On The Road
TTITLE15=Johnny Cash and The Tennessee Two - Oh Lonesome Me
EXTD=
EXTT0=
EXTT1=
EXTT2=
EXTT3=
EXTT4=
EXTT5=
EXTT6=
EXTT7=
EXTT8=
EXTT9=
EXTT10=
EXTT11=
EXTT12=
EXTT13=
EXTT14=
EXTT15=
PLAYORDER=
